<svg width="258" height="258" viewBox="0 0 258 258" fill="none" xmlns="http://www.w3.org/2000/svg">
<circle cx="129" cy="129" r="128" stroke="black" stroke-opacity="0.7" stroke-width="2" stroke-linejoin="round"/>
<g filter="url(#filter0_d_6_7)">
<path d="M193.703 124.996C195.043 124.996 200.797 125.132 204.5 130.903V124.996C204.5 121.358 207.359 118.398 210.875 118.398C212.048 118.398 213 119.383 213 120.598C213 121.812 212.048 122.797 210.875 122.797C209.704 122.797 208.75 123.784 208.75 124.996V142.59C208.75 145.016 206.844 146.988 204.5 146.988H192.812C192.225 146.988 191.75 146.496 191.75 145.889V144.789C191.75 143.575 192.702 142.59 193.875 142.59H196L187.5 135.992V145.889C187.5 147.174 187.662 146.931 186.438 146.988H184.312C183.25 146.988 183.25 147.192 183.25 145.889V131.722C183.933 131.905 184.637 132.034 185.375 132.034C189.48 132.034 192.913 129.006 193.703 124.996ZM183.25 118.398H187.5L191.75 114V123.237C191.75 126.881 188.896 129.834 185.375 129.834C181.854 129.834 179 126.881 179 123.237V114L183.25 118.398ZM188.031 123.897C188.618 123.897 189.094 123.404 189.094 122.797C189.094 122.19 188.618 121.697 188.031 121.697C187.444 121.697 186.969 122.189 186.969 122.797C186.969 123.404 187.444 123.897 188.031 123.897ZM182.719 123.897C183.306 123.897 183.781 123.404 183.781 122.797C183.781 122.189 183.306 121.697 182.719 121.697C182.132 121.697 181.656 122.189 181.656 122.797C181.656 123.404 182.132 123.897 182.719 123.897Z" fill="black"/>
<path d="M188.031 123.897C188.618 123.897 189.094 123.404 189.094 122.797C189.094 122.19 188.618 121.697 188.031 121.697C187.444 121.697 186.969 122.189 186.969 122.797C186.969 123.404 187.444 123.897 188.031 123.897Z" fill="#23F08E"/>
<path d="M182.719 123.897C183.306 123.897 183.781 123.404 183.781 122.797C183.781 122.189 183.306 121.697 182.719 121.697C182.132 121.697 181.656 122.189 181.656 122.797C181.656 123.404 182.132 123.897 182.719 123.897Z" fill="#FFF500"/>
</g>
<g filter="url(#filter1_d_6_7)">
<path d="M62.9688 115.531C62.9688 113.781 63.5625 112.312 64.75 111.125C66 109.875 67.5 109.25 69.25 109.25H87.25V79.0625H69.25C67.5 79.0625 66.0312 78.4375 64.8438 77.1875C63.5938 76 62.9688 74.5312 62.9688 72.7812C62.9688 71.0312 63.5625 69.5625 64.75 68.375C66 67.125 67.5 66.5 69.25 66.5H117.812C119.562 66.5 121.062 67.0938 122.312 68.2812C123.5 69.5312 124.094 71.0312 124.094 72.7812C124.094 74.5312 123.469 76.0312 122.219 77.2812C121.031 78.4688 119.562 79.0625 117.812 79.0625H99.9062V109.25H117.812C119.562 109.25 121.062 109.844 122.312 111.031C123.5 112.281 124.094 113.781 124.094 115.531C124.094 117.281 123.469 118.781 122.219 120.031C121.031 121.219 119.562 121.812 117.812 121.812H69.25C67.5 121.812 66.0312 121.188 64.8438 119.938C63.5938 118.75 62.9688 117.281 62.9688 115.531ZM140.219 122.938C138.531 122.875 137.094 122.281 135.906 121.156C134.719 119.969 134.094 118.531 134.031 116.844V93.5C134.094 89.0625 134.719 84.875 135.906 80.9375C137.156 77 139.188 73.6875 142 71C144.875 68.25 148.5 66.75 152.875 66.5H189.062C190.75 66.5625 192.156 67.1875 193.281 68.375C194.469 69.5 195.094 70.9062 195.156 72.5938C195.156 74.3438 194.562 75.8438 193.375 77.0938C192.25 78.3438 190.812 79 189.062 79.0625H156.062C153.688 79.1875 151.719 80.0938 150.156 81.7812C148.594 83.4688 147.594 85.4062 147.156 87.5938C146.781 89.7188 146.625 92.0625 146.688 94.625V116.844C146.625 118.594 145.969 120.062 144.719 121.25C143.469 122.375 141.969 122.938 140.219 122.938ZM151.094 98.2812C151.094 96.5312 151.719 95.0625 152.969 93.875C154.156 92.625 155.625 92 157.375 92H189.062C190.812 92 192.281 92.625 193.469 93.875C194.719 95.0625 195.344 96.5312 195.344 98.2812C195.344 100.031 194.75 101.531 193.562 102.781C192.312 103.969 190.812 104.562 189.062 104.562H157.375C155.625 104.562 154.125 103.969 152.875 102.781C151.688 101.531 151.094 100.031 151.094 98.2812Z" fill="black"/>
</g>
<g filter="url(#filter2_d_6_7)">
<path d="M49.3281 159.062C46.9531 159.188 44.9531 160.094 43.3281 161.781C41.7656 163.469 40.6406 165.406 39.9531 167.594C39.2656 169.719 38.9219 171.906 38.9219 174.156C38.9219 176.406 39.2344 178.625 39.8594 180.812C40.5469 183 41.7031 184.938 43.3281 186.625C44.9531 188.25 46.9531 189.125 49.3281 189.25H80.2656C84.2031 189.625 86.3594 191.781 86.7344 195.719C86.6719 197.469 86.0156 198.938 84.7656 200.125C83.5156 201.25 82.0156 201.812 80.2656 201.812H50.3594H46.0469C41.6719 201.562 38.0781 199.906 35.2656 196.844C32.4531 193.719 30.4219 190.188 29.1719 186.25C27.9844 182.312 27.3906 178.281 27.3906 174.156C27.3906 171.094 27.7344 168.062 28.4219 165.062C29.1094 162.062 30.1719 159.219 31.6094 156.531C33.1094 153.781 35.0781 151.438 37.5156 149.5C40.0156 147.562 42.8594 146.562 46.0469 146.5H47.8281H80.2656C84.2031 146.875 86.3594 149.031 86.7344 152.969C86.7344 154.719 86.0781 156.188 84.7656 157.375C83.5156 158.5 82.0156 159.062 80.2656 159.062H49.3281ZM116.453 187.281C116.453 185.531 117.047 184.062 118.234 182.875C119.484 181.625 120.984 181 122.734 181H137.078L134.641 174.062C133.641 171.5 132.641 169.094 131.641 166.844C130.703 164.531 129.609 162.438 128.359 160.562C127.234 158.688 125.953 157.688 124.516 157.562C123.016 157.688 121.672 158.688 120.484 160.562C119.297 162.438 118.203 164.531 117.203 166.844C116.266 169.094 115.297 171.5 114.297 174.062L105.391 198.438C104.766 199.75 103.953 200.844 102.953 201.719C102.016 202.531 100.578 202.938 98.6406 202.938C96.8281 202.938 95.3281 202.312 94.1406 201.062C93.0156 199.812 92.5156 198.312 92.6406 196.562C92.7031 195.75 92.8906 195 93.2031 194.312L103.516 167.688C106.391 160.688 109.266 155.031 112.141 150.719C114.953 146.469 119.078 144.312 124.516 144.25C129.891 144.312 133.984 146.469 136.797 150.719C139.672 154.906 142.547 160.562 145.422 167.688L155.734 194.312C156.047 195 156.234 195.75 156.297 196.562C156.422 198.312 155.891 199.812 154.703 201.062C153.578 202.312 152.109 202.938 150.297 202.938C148.234 202.938 146.703 202.531 145.703 201.719C144.766 200.844 143.984 199.75 143.359 198.438L141.578 193.562H122.734C120.984 193.562 119.516 192.938 118.328 191.688C117.078 190.5 116.453 189.031 116.453 187.281ZM163.891 152.781C163.891 151.031 164.484 149.562 165.672 148.375C166.922 147.125 168.422 146.5 170.172 146.5H224.734C226.484 146.5 227.984 147.094 229.234 148.281C230.422 149.531 231.016 151.031 231.016 152.781C231.016 154.531 230.391 156.031 229.141 157.281C227.953 158.469 226.484 159.062 224.734 159.062H203.828V197.031C203.453 200.781 201.391 202.812 197.641 203.125C195.891 203.125 194.359 202.562 193.047 201.438C191.797 200.25 191.172 198.781 191.172 197.031V159.062H170.172C168.422 159.062 166.953 158.438 165.766 157.188C164.516 156 163.891 154.531 163.891 152.781Z" fill="black"/>
</g>
<defs>
<filter id="filter0_d_6_7" x="178" y="114" width="38" height="37" filterUnits="userSpaceOnUse" color-interpolation-filters="sRGB">
<feFlood flood-opacity="0" result="BackgroundImageFix"/>
<feColorMatrix in="SourceAlpha" type="matrix" values="0 0 0 0 0 0 0 0 0 0 0 0 0 0 0 0 0 0 127 0" result="hardAlpha"/>
<feOffset dx="1" dy="2"/>
<feGaussianBlur stdDeviation="1"/>
<feComposite in2="hardAlpha" operator="out"/>
<feColorMatrix type="matrix" values="0 0 0 0 0 0 0 0 0 0 0 0 0 0 0 0 0 0 0.25 0"/>
<feBlend mode="normal" in2="BackgroundImageFix" result="effect1_dropShadow_6_7"/>
<feBlend mode="normal" in="SourceGraphic" in2="effect1_dropShadow_6_7" result="shape"/>
</filter>
<filter id="filter1_d_6_7" x="61.9688" y="66.5" width="136.375" height="60.4375" filterUnits="userSpaceOnUse" color-interpolation-filters="sRGB">
<feFlood flood-opacity="0" result="BackgroundImageFix"/>
<feColorMatrix in="SourceAlpha" type="matrix" values="0 0 0 0 0 0 0 0 0 0 0 0 0 0 0 0 0 0 127 0" result="hardAlpha"/>
<feOffset dx="1" dy="2"/>
<feGaussianBlur stdDeviation="1"/>
<feComposite in2="hardAlpha" operator="out"/>
<feColorMatrix type="matrix" values="0 0 0 0 0 0 0 0 0 0 0 0 0 0 0 0 0 0 1 0"/>
<feBlend mode="normal" in2="BackgroundImageFix" result="effect1_dropShadow_6_7"/>
<feBlend mode="normal" in="SourceGraphic" in2="effect1_dropShadow_6_7" result="shape"/>
</filter>
<filter id="filter2_d_6_7" x="26.3906" y="144.25" width="207.625" height="62.875" filterUnits="userSpaceOnUse" color-interpolation-filters="sRGB">
<feFlood flood-opacity="0" result="BackgroundImageFix"/>
<feColorMatrix in="SourceAlpha" type="matrix" values="0 0 0 0 0 0 0 0 0 0 0 0 0 0 0 0 0 0 127 0" result="hardAlpha"/>
<feOffset dx="1" dy="2"/>
<feGaussianBlur stdDeviation="1"/>
<feComposite in2="hardAlpha" operator="out"/>
<feColorMatrix type="matrix" values="0 0 0 0 0 0 0 0 0 0 0 0 0 0 0 0 0 0 1 0"/>
<feBlend mode="normal" in2="BackgroundImageFix" result="effect1_dropShadow_6_7"/>
<feBlend mode="normal" in="SourceGraphic" in2="effect1_dropShadow_6_7" result="shape"/>
</filter>
</defs>
</svg>
