<svg width="256" height="256" viewBox="0 0 256 256" fill="none" xmlns="http://www.w3.org/2000/svg">
<g filter="url(#filter0_d_6_7)">
<path d="M192.703 123.996C194.043 123.996 199.797 124.132 203.5 129.903V123.996C203.5 120.358 206.359 117.398 209.875 117.398C211.048 117.398 212 118.383 212 119.598C212 120.812 211.048 121.797 209.875 121.797C208.704 121.797 207.75 122.784 207.75 123.996V141.59C207.75 144.016 205.844 145.988 203.5 145.988H191.812C191.225 145.988 190.75 145.496 190.75 144.889V143.789C190.75 142.575 191.702 141.59 192.875 141.59H195L186.5 134.992V144.889C186.5 146.174 186.662 145.931 185.438 145.988H183.312C182.25 145.988 182.25 146.192 182.25 144.889V130.722C182.933 130.905 183.637 131.034 184.375 131.034C188.48 131.034 191.913 128.006 192.703 123.996ZM182.25 117.398H186.5L190.75 113V122.237C190.75 125.881 187.896 128.834 184.375 128.834C180.854 128.834 178 125.881 178 122.237V113L182.25 117.398ZM187.031 122.897C187.618 122.897 188.094 122.404 188.094 121.797C188.094 121.19 187.618 120.697 187.031 120.697C186.444 120.697 185.969 121.189 185.969 121.797C185.969 122.404 186.444 122.897 187.031 122.897ZM181.719 122.897C182.306 122.897 182.781 122.404 182.781 121.797C182.781 121.189 182.306 120.697 181.719 120.697C181.132 120.697 180.656 121.189 180.656 121.797C180.656 122.404 181.132 122.897 181.719 122.897Z" fill="black"/>
<path d="M187.031 122.897C187.618 122.897 188.094 122.404 188.094 121.797C188.094 121.19 187.618 120.697 187.031 120.697C186.444 120.697 185.969 121.189 185.969 121.797C185.969 122.404 186.444 122.897 187.031 122.897Z" fill="#23F08E"/>
<path d="M181.719 122.897C182.306 122.897 182.781 122.404 182.781 121.797C182.781 121.189 182.306 120.697 181.719 120.697C181.132 120.697 180.656 121.189 180.656 121.797C180.656 122.404 181.132 122.897 181.719 122.897Z" fill="#FFF500"/>
</g>
<g filter="url(#filter1_d_6_7)">
<path d="M61.9688 114.531C61.9688 112.781 62.5625 111.312 63.75 110.125C65 108.875 66.5 108.25 68.25 108.25H86.25V78.0625H68.25C66.5 78.0625 65.0312 77.4375 63.8438 76.1875C62.5938 75 61.9688 73.5312 61.9688 71.7812C61.9688 70.0312 62.5625 68.5625 63.75 67.375C65 66.125 66.5 65.5 68.25 65.5H116.812C118.562 65.5 120.062 66.0938 121.312 67.2812C122.5 68.5312 123.094 70.0312 123.094 71.7812C123.094 73.5312 122.469 75.0312 121.219 76.2812C120.031 77.4688 118.562 78.0625 116.812 78.0625H98.9062V108.25H116.812C118.562 108.25 120.062 108.844 121.312 110.031C122.5 111.281 123.094 112.781 123.094 114.531C123.094 116.281 122.469 117.781 121.219 119.031C120.031 120.219 118.562 120.812 116.812 120.812H68.25C66.5 120.812 65.0312 120.188 63.8438 118.938C62.5938 117.75 61.9688 116.281 61.9688 114.531ZM139.219 121.938C137.531 121.875 136.094 121.281 134.906 120.156C133.719 118.969 133.094 117.531 133.031 115.844V92.5C133.094 88.0625 133.719 83.875 134.906 79.9375C136.156 76 138.188 72.6875 141 70C143.875 67.25 147.5 65.75 151.875 65.5H188.062C189.75 65.5625 191.156 66.1875 192.281 67.375C193.469 68.5 194.094 69.9062 194.156 71.5938C194.156 73.3438 193.562 74.8438 192.375 76.0938C191.25 77.3438 189.812 78 188.062 78.0625H155.062C152.688 78.1875 150.719 79.0938 149.156 80.7812C147.594 82.4688 146.594 84.4062 146.156 86.5938C145.781 88.7188 145.625 91.0625 145.688 93.625V115.844C145.625 117.594 144.969 119.062 143.719 120.25C142.469 121.375 140.969 121.938 139.219 121.938ZM150.094 97.2812C150.094 95.5312 150.719 94.0625 151.969 92.875C153.156 91.625 154.625 91 156.375 91H188.062C189.812 91 191.281 91.625 192.469 92.875C193.719 94.0625 194.344 95.5312 194.344 97.2812C194.344 99.0312 193.75 100.531 192.562 101.781C191.312 102.969 189.812 103.562 188.062 103.562H156.375C154.625 103.562 153.125 102.969 151.875 101.781C150.688 100.531 150.094 99.0312 150.094 97.2812Z" fill="black"/>
</g>
<g filter="url(#filter2_d_6_7)">
<path d="M48.3281 158.062C45.9531 158.188 43.9531 159.094 42.3281 160.781C40.7656 162.469 39.6406 164.406 38.9531 166.594C38.2656 168.719 37.9219 170.906 37.9219 173.156C37.9219 175.406 38.2344 177.625 38.8594 179.812C39.5469 182 40.7031 183.938 42.3281 185.625C43.9531 187.25 45.9531 188.125 48.3281 188.25H79.2656C83.2031 188.625 85.3594 190.781 85.7344 194.719C85.6719 196.469 85.0156 197.938 83.7656 199.125C82.5156 200.25 81.0156 200.812 79.2656 200.812H49.3594H45.0469C40.6719 200.562 37.0781 198.906 34.2656 195.844C31.4531 192.719 29.4219 189.188 28.1719 185.25C26.9844 181.312 26.3906 177.281 26.3906 173.156C26.3906 170.094 26.7344 167.062 27.4219 164.062C28.1094 161.062 29.1719 158.219 30.6094 155.531C32.1094 152.781 34.0781 150.438 36.5156 148.5C39.0156 146.562 41.8594 145.562 45.0469 145.5H46.8281H79.2656C83.2031 145.875 85.3594 148.031 85.7344 151.969C85.7344 153.719 85.0781 155.188 83.7656 156.375C82.5156 157.5 81.0156 158.062 79.2656 158.062H48.3281ZM115.453 186.281C115.453 184.531 116.047 183.062 117.234 181.875C118.484 180.625 119.984 180 121.734 180H136.078L133.641 173.062C132.641 170.5 131.641 168.094 130.641 165.844C129.703 163.531 128.609 161.438 127.359 159.562C126.234 157.688 124.953 156.688 123.516 156.562C122.016 156.688 120.672 157.688 119.484 159.562C118.297 161.438 117.203 163.531 116.203 165.844C115.266 168.094 114.297 170.5 113.297 173.062L104.391 197.438C103.766 198.75 102.953 199.844 101.953 200.719C101.016 201.531 99.5781 201.938 97.6406 201.938C95.8281 201.938 94.3281 201.312 93.1406 200.062C92.0156 198.812 91.5156 197.312 91.6406 195.562C91.7031 194.75 91.8906 194 92.2031 193.312L102.516 166.688C105.391 159.688 108.266 154.031 111.141 149.719C113.953 145.469 118.078 143.312 123.516 143.25C128.891 143.312 132.984 145.469 135.797 149.719C138.672 153.906 141.547 159.562 144.422 166.688L154.734 193.312C155.047 194 155.234 194.75 155.297 195.562C155.422 197.312 154.891 198.812 153.703 200.062C152.578 201.312 151.109 201.938 149.297 201.938C147.234 201.938 145.703 201.531 144.703 200.719C143.766 199.844 142.984 198.75 142.359 197.438L140.578 192.562H121.734C119.984 192.562 118.516 191.938 117.328 190.688C116.078 189.5 115.453 188.031 115.453 186.281ZM162.891 151.781C162.891 150.031 163.484 148.562 164.672 147.375C165.922 146.125 167.422 145.5 169.172 145.5H223.734C225.484 145.5 226.984 146.094 228.234 147.281C229.422 148.531 230.016 150.031 230.016 151.781C230.016 153.531 229.391 155.031 228.141 156.281C226.953 157.469 225.484 158.062 223.734 158.062H202.828V196.031C202.453 199.781 200.391 201.812 196.641 202.125C194.891 202.125 193.359 201.562 192.047 200.438C190.797 199.25 190.172 197.781 190.172 196.031V158.062H169.172C167.422 158.062 165.953 157.438 164.766 156.188C163.516 155 162.891 153.531 162.891 151.781Z" fill="black"/>
</g>
<defs>
<filter id="filter0_d_6_7" x="177" y="113" width="38" height="37" filterUnits="userSpaceOnUse" color-interpolation-filters="sRGB">
<feFlood flood-opacity="0" result="BackgroundImageFix"/>
<feColorMatrix in="SourceAlpha" type="matrix" values="0 0 0 0 0 0 0 0 0 0 0 0 0 0 0 0 0 0 127 0" result="hardAlpha"/>
<feOffset dx="1" dy="2"/>
<feGaussianBlur stdDeviation="1"/>
<feComposite in2="hardAlpha" operator="out"/>
<feColorMatrix type="matrix" values="0 0 0 0 0 0 0 0 0 0 0 0 0 0 0 0 0 0 0.25 0"/>
<feBlend mode="normal" in2="BackgroundImageFix" result="effect1_dropShadow_6_7"/>
<feBlend mode="normal" in="SourceGraphic" in2="effect1_dropShadow_6_7" result="shape"/>
</filter>
<filter id="filter1_d_6_7" x="60.9688" y="65.5" width="136.375" height="60.4375" filterUnits="userSpaceOnUse" color-interpolation-filters="sRGB">
<feFlood flood-opacity="0" result="BackgroundImageFix"/>
<feColorMatrix in="SourceAlpha" type="matrix" values="0 0 0 0 0 0 0 0 0 0 0 0 0 0 0 0 0 0 127 0" result="hardAlpha"/>
<feOffset dx="1" dy="2"/>
<feGaussianBlur stdDeviation="1"/>
<feComposite in2="hardAlpha" operator="out"/>
<feColorMatrix type="matrix" values="0 0 0 0 0 0 0 0 0 0 0 0 0 0 0 0 0 0 1 0"/>
<feBlend mode="normal" in2="BackgroundImageFix" result="effect1_dropShadow_6_7"/>
<feBlend mode="normal" in="SourceGraphic" in2="effect1_dropShadow_6_7" result="shape"/>
</filter>
<filter id="filter2_d_6_7" x="25.3906" y="143.25" width="207.625" height="62.875" filterUnits="userSpaceOnUse" color-interpolation-filters="sRGB">
<feFlood flood-opacity="0" result="BackgroundImageFix"/>
<feColorMatrix in="SourceAlpha" type="matrix" values="0 0 0 0 0 0 0 0 0 0 0 0 0 0 0 0 0 0 127 0" result="hardAlpha"/>
<feOffset dx="1" dy="2"/>
<feGaussianBlur stdDeviation="1"/>
<feComposite in2="hardAlpha" operator="out"/>
<feColorMatrix type="matrix" values="0 0 0 0 0 0 0 0 0 0 0 0 0 0 0 0 0 0 1 0"/>
<feBlend mode="normal" in2="BackgroundImageFix" result="effect1_dropShadow_6_7"/>
<feBlend mode="normal" in="SourceGraphic" in2="effect1_dropShadow_6_7" result="shape"/>
</filter>
</defs>
</svg>
